<svg width="25" height="43" viewBox="0 0 25 43" fill="none" xmlns="http://www.w3.org/2000/svg">
<path d="M23.5647 19.4118C24.8144 20.6615 24.8144 22.6876 23.5647 23.9373L5.46277 42.0392C4.21309 43.2889 2.18696 43.2889 0.937286 42.0392C-0.312391 40.7896 -0.312393 38.7634 0.937284 37.5137L19.0392 19.4118C20.2889 18.1621 22.315 18.1621 23.5647 19.4118Z" fill="white"/>
<path d="M0.937258 1.30985C2.18694 0.0601752 4.21306 0.0601714 5.46274 1.30985L23.5647 19.4118C24.8144 20.6615 24.8144 22.6876 23.5647 23.9373C22.315 25.187 20.2889 25.1869 19.0392 23.9373L0.937258 5.83533C-0.31242 4.58566 -0.31242 2.55953 0.937258 1.30985Z" fill="white"/>
</svg>
