<svg width="39" height="44" viewBox="0 0 39 44" fill="none" xmlns="http://www.w3.org/2000/svg">
<path d="M1.87062 24.2628C0.620938 23.0131 0.620937 20.9869 1.87061 19.7373L19.9725 1.63533C21.2222 0.385654 23.2484 0.385656 24.498 1.63533C25.7477 2.88501 25.7477 4.91114 24.498 6.16082L6.3961 24.2628C5.14642 25.5124 3.12029 25.5124 1.87062 24.2628Z" fill="white"/>
<path d="M24.4981 42.3647C23.2484 43.6144 21.2223 43.6144 19.9726 42.3647L1.87062 24.2628C0.620938 23.0131 0.620937 20.9869 1.87061 19.7373C3.12029 18.4876 5.14645 18.4876 6.39613 19.7373L24.4981 37.8392C25.7477 39.0889 25.7477 41.115 24.4981 42.3647Z" fill="white"/>
<path d="M15.2627 23.8902C14.0131 22.6405 14.0131 20.6144 15.2627 19.3647L33.3647 1.26274C34.6144 0.0130652 36.6405 0.0130665 37.8902 1.26274C39.1398 2.51242 39.1398 4.53855 37.8902 5.78823L19.7882 23.8902C18.5385 25.1398 16.5124 25.1398 15.2627 23.8902Z" fill="white"/>
<path d="M37.8902 41.9921C36.6405 43.2418 34.6144 43.2418 33.3647 41.9921L15.2627 23.8902C14.0131 22.6405 14.0131 20.6144 15.2627 19.3647C16.5124 18.115 18.5386 18.115 19.7883 19.3647L37.8902 37.4666C39.1399 38.7163 39.1399 40.7424 37.8902 41.9921Z" fill="white"/>
</svg>
