<svg width="38" height="43" viewBox="0 0 38 43" fill="none" xmlns="http://www.w3.org/2000/svg">
<path d="M36.9568 19.0392C38.2065 20.2889 38.2065 22.315 36.9568 23.5647L18.8549 41.6666C17.6052 42.9163 15.5791 42.9163 14.3294 41.6666C13.0797 40.417 13.0797 38.3908 14.3294 37.1412L32.4313 19.0392C33.681 17.7895 35.7072 17.7895 36.9568 19.0392Z" fill="white"/>
<path d="M14.3294 0.937263C15.5791 -0.312414 17.6052 -0.312418 18.8549 0.93726L36.9568 19.0392C38.2065 20.2889 38.2065 22.315 36.9568 23.5647C35.7072 24.8144 33.681 24.8144 32.4313 23.5647L14.3294 5.46275C13.0797 4.21307 13.0797 2.18694 14.3294 0.937263Z" fill="white"/>
<path d="M23.5647 19.4118C24.8144 20.6615 24.8144 22.6876 23.5647 23.9373L5.46277 42.0392C4.21309 43.2889 2.18696 43.2889 0.937286 42.0392C-0.312391 40.7896 -0.312391 38.7634 0.937286 37.5137L19.0392 19.4118C20.2889 18.1621 22.315 18.1621 23.5647 19.4118Z" fill="white"/>
<path d="M0.93726 1.30985C2.18694 0.0601752 4.21306 0.0601714 5.46274 1.30985L23.5647 19.4118C24.8144 20.6615 24.8144 22.6876 23.5647 23.9373C22.315 25.187 20.2889 25.1869 19.0392 23.9373L0.937256 5.83533C-0.312422 4.58566 -0.312418 2.55953 0.93726 1.30985Z" fill="white"/>
</svg>
