<svg width="25" height="43" viewBox="0 0 25 43" fill="none" xmlns="http://www.w3.org/2000/svg">
<path d="M0.937259 23.9373C-0.312419 22.6876 -0.31242 20.6615 0.937258 19.4118L19.0392 1.30985C20.2889 0.0601691 22.315 0.0601704 23.5647 1.30985C24.8144 2.55953 24.8144 4.58565 23.5647 5.83533L5.46274 23.9373C4.21306 25.1869 2.18694 25.1869 0.937259 23.9373Z" fill="white"/>
<path d="M23.5647 42.0392C22.315 43.2889 20.2889 43.2889 19.0392 42.0392L0.937259 23.9373C-0.312419 22.6876 -0.31242 20.6615 0.937258 19.4118C2.18694 18.1621 4.21309 18.1621 5.46277 19.4118L23.5647 37.5137C24.8144 38.7634 24.8144 40.7895 23.5647 42.0392Z" fill="white"/>
</svg>
